<svg xmlns="http://www.w3.org/2000/svg" version="1.1" xmlns:xlink="http://www.w3.org/1999/xlink" xmlns:svgjs="http://svgjs.dev/svgjs" width="1000" height="1000" viewBox="0 0 1000 1000"><rect width="1000" height="1000" fill="#1c2434"></rect><g transform="matrix(0.7,0,0,0.7,149.57575757575756,386.6734555308446)"><svg viewBox="0 0 396 129" data-background-color="#1c2434" preserveAspectRatio="xMidYMid meet" height="325" width="1000" xmlns="http://www.w3.org/2000/svg" xmlns:xlink="http://www.w3.org/1999/xlink"><g id="tight-bounds" transform="matrix(1,0,0,1,0.2400000000000091,-0.2401132460613269)"><svg viewBox="0 0 395.52 129.480191128244" height="129.480191128244" width="395.52"><g><svg viewBox="0 0 668.4117464473643 218.81594023656984" height="129.480191128244" width="395.52"><g transform="matrix(1,0,0,1,272.89174644736426,30.752248525027582)"><svg viewBox="0 0 395.52 157.31144318651468" height="157.31144318651468" width="395.52"><g id="textblocktransform"><svg viewBox="0 0 395.52 157.31144318651468" height="157.31144318651468" width="395.52" id="textblock"><g><svg viewBox="0 0 395.52 114.53050333535475" height="114.53050333535475" width="395.52"><g transform="matrix(1,0,0,1,0,0)"><svg width="395.52" viewBox="3.45 -40.5 164.88000000000002 47.75" height="114.53050333535475" data-palette-color="#ffffff"><path d="M9 0L3.45 0 3.45-40.5 9-40.5 9 0ZM20.45 0L15.1 0 15.1-28.9 20.45-28.9 20.45-26.05Q21.9-27.4 23.65-28.35 25.4-29.3 27.5-29.3L27.5-29.3Q29.25-29.3 30.17-28.4 31.1-27.5 31.47-26.15 31.85-24.8 31.85-23.4L31.85-23.4 31.85 0 26.5 0 26.5-21.85Q26.5-23.4 26.05-24.25 25.6-25.1 24.2-25.1L24.2-25.1Q23.3-25.1 22.32-24.58 21.35-24.05 20.45-23.3L20.45-23.3 20.45 0ZM47.35 0L40.8 0 35.1-28.9 40.5-28.9 44.05-5.65 47.65-28.9 52.85-28.9 47.35 0ZM64.29 0.4L64.29 0.4Q60.89 0.4 59.04-0.93 57.19-2.25 56.47-4.83 55.74-7.4 55.74-11.15L55.74-11.15 55.74-17.75Q55.74-21.6 56.49-24.15 57.24-26.7 59.12-28 60.99-29.3 64.29-29.3L64.29-29.3Q67.94-29.3 69.67-27.8 71.39-26.3 71.94-23.48 72.49-20.65 72.49-16.7L72.49-16.7 72.49-14.35 61.09-14.35 61.09-8.55Q61.09-6.8 61.42-5.7 61.74-4.6 62.47-4.08 63.19-3.55 64.34-3.55L64.34-3.55Q65.54-3.55 66.17-4.13 66.79-4.7 67.02-5.78 67.24-6.85 67.24-8.3L67.24-8.3 67.24-10.05 72.44-10.05 72.44-8.95Q72.44-4.6 70.59-2.1 68.74 0.4 64.29 0.4ZM61.09-18.8L61.09-17.25 67.24-17.25 67.24-19.85Q67.24-21.65 67.04-22.88 66.84-24.1 66.22-24.73 65.59-25.35 64.24-25.35L64.24-25.35Q62.94-25.35 62.27-24.75 61.59-24.15 61.34-22.73 61.09-21.3 61.09-18.8L61.09-18.8ZM82.69 0L77.34 0 77.34-28.9 82.69-28.9 82.69-26.05Q84.14-27.4 85.89-28.35 87.64-29.3 89.74-29.3L89.74-29.3Q91.49-29.3 92.42-28.4 93.34-27.5 93.72-26.15 94.09-24.8 94.09-23.4L94.09-23.4 94.09 0 88.74 0 88.74-21.85Q88.74-23.4 88.29-24.25 87.84-25.1 86.44-25.1L86.44-25.1Q85.54-25.1 84.57-24.58 83.59-24.05 82.69-23.3L82.69-23.3 82.69 0ZM106.99 0.4L106.99 0.4Q104.74 0.4 103.36-0.45 101.99-1.3 101.36-2.85 100.74-4.4 100.74-6.5L100.74-6.5 100.74-25.35 97.69-25.35 97.69-28.9 100.74-28.9 100.74-37.35 106.09-37.35 106.09-28.9 110.74-28.9 110.74-25.35 106.09-25.35 106.09-6.85Q106.09-5.15 106.64-4.42 107.19-3.7 108.74-3.7L108.74-3.7Q109.14-3.7 109.66-3.75 110.19-3.8 110.69-3.85L110.69-3.85 110.69 0.1Q109.69 0.25 108.84 0.33 107.99 0.4 106.99 0.4ZM122.64 0.4L122.64 0.4Q119.44 0.4 117.59-0.9 115.74-2.2 114.96-4.6 114.19-7 114.19-10.25L114.19-10.25 114.19-18.65Q114.19-21.9 114.96-24.3 115.74-26.7 117.59-28 119.44-29.3 122.64-29.3L122.64-29.3Q125.84-29.3 127.66-28 129.49-26.7 130.26-24.3 131.04-21.9 131.04-18.65L131.04-18.65 131.04-10.25Q131.04-7 130.26-4.6 129.49-2.2 127.66-0.9 125.84 0.4 122.64 0.4ZM122.64-3.55L122.64-3.55Q124.19-3.55 124.81-4.45 125.44-5.35 125.56-6.83 125.69-8.3 125.69-9.9L125.69-9.9 125.69-18.95Q125.69-20.6 125.56-22.05 125.44-23.5 124.81-24.43 124.19-25.35 122.64-25.35L122.64-25.35Q121.09-25.35 120.44-24.43 119.79-23.5 119.66-22.05 119.54-20.6 119.54-18.95L119.54-18.95 119.54-9.9Q119.54-8.3 119.66-6.83 119.79-5.35 120.44-4.45 121.09-3.55 122.64-3.55ZM141.43 0L136.08 0 136.08-28.9 141.43-28.9 141.43-24.8Q143.03-27.45 144.63-28.35 146.23-29.25 147.83-29.25L147.83-29.25Q148.03-29.25 148.21-29.25 148.38-29.25 148.68-29.2L148.68-29.2 148.68-23.3Q148.08-23.55 147.31-23.73 146.53-23.9 145.73-23.9L145.73-23.9Q144.48-23.9 143.46-23.33 142.43-22.75 141.43-21.1L141.43-21.1 141.43 0ZM152.18 7.25L151.53 7.25 151.53 3.15Q153.48 3.15 154.63 2.98 155.78 2.8 156.28 2.33 156.78 1.85 156.78 1L156.78 1Q156.78 0.55 156.43-1 156.08-2.55 155.68-4.3L155.68-4.3 149.88-28.9 155.28-28.9 159.18-7.3 162.93-28.9 168.33-28.9 161.43 1.6Q160.98 3.7 159.78 4.93 158.58 6.15 156.71 6.7 154.83 7.25 152.18 7.25L152.18 7.25Z" opacity="1" transform="matrix(1,0,0,1,0,0)" fill="#ffffff" class="wordmark-text-0" data-fill-palette-color="primary" id="text-0"></path></svg></g></svg></g><g transform="matrix(1,0,0,1,0,141.56840644075197)"><svg viewBox="0 0 232.209792 15.743036745762712" height="15.743036745762712" width="232.209792"><g transform="matrix(1,0,0,1,0,0)"><svg width="232.209792" viewBox="6.25 -50 737.46 50" height="15.743036745762712" data-palette-color="#ffffff"><path d="M43.75-6.25L6.25-6.25 6.25-50 18.75-50 18.75-12.5 43.75-12.5 43.75-6.25ZM87.5-6.25L56.25-6.25 56.25-12.5 50-12.5 50-31.25 56.25-31.25 56.25-37.5 87.5-37.5 87.5-31.25 93.75-31.25 93.75-18.75 62.5-18.75 62.5-12.5 87.5-12.5 87.5-6.25ZM62.5-31.25L62.5-25 81.25-25 81.25-31.25 62.5-31.25ZM131.25-6.25L118.75-6.25 118.75-31.25 106.25-31.25 106.25-37.5 118.75-37.5 118.75-50 131.25-50 131.25-37.5 143.75-37.5 143.75-31.25 131.25-31.25 131.25-6.25ZM174.99-31.25L162.49-31.25 162.49-50 174.99-50 174.99-31.25ZM237.49-6.25L199.99-6.25 199.99-12.5 231.24-12.5 231.24-18.75 206.24-18.75 206.24-25 199.99-25 199.99-31.25 206.24-31.25 206.24-37.5 237.49-37.5 237.49-31.25 212.49-31.25 212.49-25 237.49-25 237.49-18.75 243.74-18.75 243.74-12.5 237.49-12.5 237.49-6.25ZM306.24-6.25L299.99-6.25 299.99-37.5 337.49-37.5 337.49-31.25 343.74-31.25 343.74-6.25 331.24-6.25 331.24-31.25 324.99-31.25 324.99-6.25 312.49-6.25 312.49-31.25 306.24-31.25 306.24-6.25ZM393.73-6.25L356.23-6.25 356.23-12.5 349.98-12.5 349.98-18.75 356.23-18.75 356.23-25 381.23-25 381.23-31.25 356.23-31.25 356.23-37.5 387.48-37.5 387.48-31.25 393.73-31.25 393.73-6.25ZM362.48-18.75L362.48-12.5 381.23-12.5 381.23-18.75 362.48-18.75ZM412.48-6.25L399.98-6.25 399.98-37.5 437.48-37.5 437.48-31.25 443.73-31.25 443.73-6.25 431.23-6.25 431.23-31.25 412.48-31.25 412.48-6.25ZM493.73-6.25L456.23-6.25 456.23-12.5 449.98-12.5 449.98-18.75 456.23-18.75 456.23-25 481.23-25 481.23-31.25 456.23-31.25 456.23-37.5 487.48-37.5 487.48-31.25 493.73-31.25 493.73-6.25ZM462.48-18.75L462.48-12.5 481.23-12.5 481.23-18.75 462.48-18.75ZM537.48 0L506.23 0 506.23-6.25 531.23-6.25 531.23-12.5 506.23-12.5 506.23-18.75 499.98-18.75 499.98-31.25 506.23-31.25 506.23-37.5 543.73-37.5 543.73-6.25 537.48-6.25 537.48 0ZM512.48-31.25L512.48-18.75 531.23-18.75 531.23-31.25 512.48-31.25ZM587.47-6.25L556.22-6.25 556.22-12.5 549.97-12.5 549.97-31.25 556.22-31.25 556.22-37.5 587.47-37.5 587.47-31.25 593.72-31.25 593.72-18.75 562.47-18.75 562.47-12.5 587.47-12.5 587.47-6.25ZM562.47-31.25L562.47-25 581.22-25 581.22-31.25 562.47-31.25ZM681.22-43.75L668.72-43.75 668.72-50 681.22-50 681.22-43.75ZM693.72-6.25L656.22-6.25 656.22-12.5 668.72-12.5 668.72-31.25 662.47-31.25 662.47-37.5 681.22-37.5 681.22-12.5 693.72-12.5 693.72-6.25ZM731.21-6.25L718.71-6.25 718.71-31.25 706.21-31.25 706.21-37.5 718.71-37.5 718.71-50 731.21-50 731.21-37.5 743.71-37.5 743.71-31.25 731.21-31.25 731.21-6.25Z" opacity="1" transform="matrix(1,0,0,1,0,0)" fill="#ffffff" class="slogan-text-1" data-fill-palette-color="secondary" id="text-1"></path></svg></g></svg></g></svg></g></svg></g><g><svg viewBox="0 0 218.81594023656984 218.81594023656984" height="218.81594023656984" width="218.81594023656984"><g><svg></svg></g><g id="icon-0"><svg viewBox="0 0 218.81594023656984 218.81594023656984" height="218.81594023656984" width="218.81594023656984"><g><path d="M0 109.408c0-60.424 48.984-109.408 109.408-109.408 60.424 0 109.408 48.984 109.408 109.408 0 60.424-48.984 109.408-109.408 109.408-60.424 0-109.408-48.984-109.408-109.408zM109.408 208.487c54.72 0 99.079-44.359 99.079-99.079 0-54.72-44.359-99.079-99.079-99.08-54.72 0-99.079 44.359-99.08 99.08 0 54.72 44.359 99.079 99.08 99.079z" data-fill-palette-color="accent" fill="#3c50e0" stroke="transparent"></path></g><g transform="matrix(1,0,0,1,53.908980922336305,53.908980922336305)"><svg viewBox="0 0 110.99797839189723 110.99797839189723" height="110.99797839189723" width="110.99797839189723"><g><svg xmlns="http://www.w3.org/2000/svg" xmlns:xlink="http://www.w3.org/1999/xlink" xml:space="preserve" style="shape-rendering:geometricPrecision;text-rendering:geometricPrecision;image-rendering:optimizeQuality;" viewBox="0 0 6 6" x="0" y="0" fill-rule="evenodd" clip-rule="evenodd" width="110.99797839189723" height="110.99797839189723" class="icon-cg-0" data-fill-palette-color="accent" id="cg-0"><g fill="#3c50e0" data-fill-palette-color="accent"><g fill="#3c50e0" data-fill-palette-color="accent"><path class="" d="M4.522 3.502c0.065-0.003 0.13-0.001 0.193 0.008 0.064 0.008 0.127 0.023 0.189 0.042l0.145-0.251 0.027-0.046 0.046 0.026 0.299 0.173 0.046 0.027-0.026 0.046-0.146 0.252c0.048 0.043 0.092 0.091 0.132 0.142 0.039 0.051 0.074 0.105 0.103 0.163l0.28-0.075 0.052-0.014 0.014 0.051 0.089 0.334 0.014 0.052-0.052 0.014-0.28 0.075c0.003 0.065 0.001 0.13-0.008 0.193-0.008 0.064-0.023 0.127-0.043 0.188l0.252 0.146 0.046 0.026-0.026 0.046-0.173 0.3-0.027 0.046-0.046-0.027-0.252-0.145c-0.043 0.048-0.091 0.092-0.142 0.131-0.051 0.039-0.105 0.074-0.163 0.104l0.075 0.28 0.014 0.051-0.051 0.014-0.334 0.09-0.052 0.013-0.014-0.051-0.075-0.28c-0.065 0.003-0.13 0.001-0.193-0.008-0.064-0.008-0.127-0.023-0.188-0.043l-0.146 0.252-0.026 0.046-0.046-0.027-0.3-0.173-0.046-0.026 0.027-0.046 0.145-0.252c-0.048-0.043-0.092-0.091-0.131-0.142-0.039-0.051-0.074-0.105-0.104-0.163l-0.28 0.075-0.051 0.014-0.014-0.052-0.09-0.334-0.014-0.051 0.052-0.014 0.28-0.075c-0.003-0.065-0.001-0.13 0.008-0.193 0.008-0.064 0.023-0.127 0.043-0.189l-0.252-0.145-0.046-0.027 0.027-0.046 0.173-0.299 0.026-0.046 0.046 0.026 0.252 0.146c0.043-0.048 0.091-0.092 0.142-0.132 0.051-0.039 0.105-0.074 0.163-0.103l-0.075-0.28-0.014-0.052 0.052-0.014 0.334-0.089 0.051-0.014 0.014 0.052 0.075 0.28z m0.179 0.113c-0.07-0.009-0.142-0.011-0.214-0.004l-0.045 0.004-0.012-0.043-0.072-0.271-0.231 0.062 0.073 0.271 0.011 0.043-0.041 0.019c-0.066 0.03-0.127 0.068-0.183 0.111-0.058 0.044-0.11 0.094-0.155 0.149l-0.029 0.034-0.038-0.022-0.244-0.141-0.119 0.207 0.243 0.141 0.039 0.022-0.016 0.042c-0.025 0.066-0.042 0.136-0.051 0.209-0.009 0.07-0.011 0.142-0.004 0.214l0.004 0.045-0.044 0.011-0.271 0.073 0.062 0.231 0.271-0.073 0.044-0.011 0.019 0.041c0.03 0.066 0.068 0.127 0.11 0.183 0.044 0.058 0.094 0.11 0.149 0.155l0.035 0.029-0.023 0.038-0.14 0.244 0.207 0.119 0.14-0.243 0.023-0.039 0.042 0.016c0.066 0.025 0.136 0.042 0.208 0.051 0.07 0.009 0.142 0.011 0.214 0.004l0.045-0.004 0.012 0.043 0.073 0.272 0.23-0.062-0.072-0.271-0.012-0.044 0.041-0.019c0.066-0.03 0.127-0.068 0.183-0.11 0.058-0.044 0.11-0.094 0.155-0.149l0.029-0.035 0.039 0.023 0.243 0.14 0.12-0.207-0.244-0.14-0.039-0.023 0.016-0.042c0.025-0.066 0.042-0.136 0.052-0.208 0.009-0.07 0.011-0.142 0.004-0.215l-0.005-0.044 0.044-0.012 0.271-0.073-0.062-0.23-0.271 0.072-0.043 0.012-0.019-0.041c-0.03-0.066-0.068-0.127-0.111-0.183-0.044-0.058-0.094-0.11-0.149-0.155l-0.034-0.029 0.022-0.039 0.141-0.243-0.207-0.12-0.141 0.244-0.022 0.038-0.042-0.015c-0.066-0.025-0.136-0.042-0.209-0.052z" fill="#3c50e0" fill-rule="nonzero" data-fill-palette-color="accent"></path><path class="" d="M4.575 3.781c0.219 0 0.417 0.089 0.561 0.232 0.143 0.143 0.232 0.342 0.232 0.561 0 0.219-0.089 0.417-0.232 0.56-0.143 0.143-0.342 0.232-0.561 0.232-0.219 0-0.417-0.089-0.56-0.232-0.143-0.143-0.232-0.342-0.232-0.56 0-0.219 0.089-0.417 0.232-0.561 0.143-0.143 0.342-0.232 0.56-0.232z m0.485 0.308c-0.124-0.124-0.296-0.201-0.485-0.201-0.189 0-0.361 0.077-0.485 0.201-0.124 0.124-0.201 0.296-0.201 0.485 0 0.189 0.077 0.361 0.201 0.485 0.124 0.124 0.296 0.201 0.485 0.201 0.189 0 0.361-0.077 0.485-0.201 0.124-0.124 0.201-0.296 0.201-0.485 0-0.189-0.077-0.361-0.201-0.485z" fill="#3c50e0" fill-rule="nonzero" data-fill-palette-color="accent"></path><path class="" d="M4.575 4.121c0.125 0 0.238 0.051 0.321 0.132 0.082 0.082 0.133 0.195 0.132 0.321 0 0.125-0.051 0.238-0.132 0.32-0.082 0.082-0.195 0.133-0.321 0.133-0.125 0-0.238-0.051-0.32-0.133-0.082-0.082-0.133-0.195-0.133-0.32 0-0.125 0.051-0.238 0.133-0.321 0.082-0.082 0.195-0.133 0.32-0.132z m0.245 0.208c-0.063-0.063-0.149-0.102-0.245-0.102-0.096 0-0.182 0.039-0.245 0.102-0.063 0.063-0.102 0.149-0.101 0.245 0 0.096 0.039 0.182 0.101 0.245 0.063 0.063 0.149 0.102 0.245 0.101 0.096 0 0.182-0.039 0.245-0.101 0.063-0.063 0.102-0.149 0.102-0.245 0-0.096-0.039-0.182-0.102-0.245z" fill="#3c50e0" fill-rule="nonzero" data-fill-palette-color="accent"></path><path class="" d="M4.575 4.324c0.069 0 0.131 0.028 0.176 0.073 0.045 0.045 0.073 0.107 0.073 0.177 0 0.069-0.028 0.131-0.073 0.176-0.045 0.045-0.107 0.073-0.176 0.073-0.069 0-0.131-0.028-0.176-0.073-0.045-0.045-0.073-0.107-0.073-0.176 0-0.069 0.028-0.131 0.073-0.177 0.045-0.045 0.107-0.073 0.176-0.073z m0.101 0.149c-0.026-0.026-0.061-0.042-0.101-0.042-0.039 0-0.075 0.016-0.101 0.042-0.026 0.026-0.042 0.061-0.041 0.101 0 0.039 0.016 0.075 0.041 0.101 0.026 0.026 0.061 0.042 0.101 0.041 0.039 0 0.075-0.016 0.101-0.041 0.026-0.026 0.042-0.061 0.042-0.101 0-0.039-0.016-0.075-0.042-0.101z" fill="#3c50e0" fill-rule="nonzero" data-fill-palette-color="accent"></path><path class="" d="M3.465 3.245c0.03-0.001 0.057-0.002 0.082-0.002 0.126 0 0.248 0.014 0.365 0.039l0.032 0.118c-0.125-0.032-0.258-0.05-0.397-0.051-0.023 0-0.045 0-0.065 0.002-0.079 0.057-0.166 0.102-0.259 0.133-0.095 0.032-0.196 0.049-0.3 0.049-0.104 0-0.205-0.017-0.301-0.049-0.093-0.031-0.18-0.077-0.259-0.133-0.022-0.001-0.044-0.001-0.065-0.002l0 0c-0.365 0-0.695 0.124-0.937 0.318-0.239 0.192-0.392 0.453-0.406 0.731-0.001 0.012-0.001 0.026-0.001 0.041l0 0.408 2.17 0 0.028 0.107-2.251 0c-0.029 0-0.053-0.024-0.053-0.053l0-0.462c0-0.014 0-0.029 0.001-0.046 0.015-0.309 0.183-0.598 0.445-0.809 0.26-0.209 0.613-0.342 1.004-0.341l0 0c0.029 0 0.058 0.001 0.086 0.002l-0.002 0.053 0.003-0.053c0.012 0.001 0.022 0.005 0.03 0.012 0.073 0.055 0.154 0.098 0.241 0.126 0.084 0.028 0.173 0.043 0.267 0.044 0.093 0 0.183-0.015 0.266-0.044 0.087-0.029 0.168-0.073 0.242-0.128l0 0c0.01-0.007 0.022-0.011 0.034-0.01z" fill="#3c50e0" fill-rule="nonzero" data-fill-palette-color="accent"></path><path class="" d="M2.923 0.849c0.288 0 0.548 0.092 0.732 0.274 0.169 0.167 0.273 0.406 0.272 0.716 0 0.327-0.115 0.648-0.301 0.885-0.181 0.231-0.429 0.382-0.703 0.381-0.275 0-0.523-0.151-0.704-0.381-0.186-0.237-0.301-0.558-0.301-0.885 0-0.31 0.104-0.55 0.273-0.716 0.184-0.181 0.444-0.274 0.732-0.274z m0.657 0.35c-0.163-0.161-0.397-0.243-0.657-0.243-0.26 0-0.494 0.082-0.658 0.243-0.149 0.147-0.241 0.361-0.24 0.64 0 0.303 0.107 0.6 0.278 0.819 0.162 0.206 0.38 0.341 0.62 0.341 0.24 0 0.458-0.135 0.62-0.341 0.171-0.218 0.278-0.516 0.278-0.819 0-0.28-0.091-0.494-0.241-0.64z" fill="#3c50e0" fill-rule="nonzero" data-fill-palette-color="accent"></path></g></g><rect class="" width="6.82666" height="6.82666" fill="none"></rect></svg></g></svg></g></svg></g></svg></g></svg></g><defs></defs></svg><rect width="395.52" height="129.480191128244" fill="none" stroke="none" visibility="hidden"></rect></g></svg></g></svg>