<svg xmlns="http://www.w3.org/2000/svg" version="1.1" xmlns:xlink="http://www.w3.org/1999/xlink" xmlns:svgjs="http://svgjs.dev/svgjs" width="2000" height="1500" viewBox="0 0 2000 1500"><rect width="2000" height="1500" fill="none"></rect><g transform="matrix(0.75,0,0,0.75,249.09090909090912,502.7190543527589)"><svg viewBox="0 0 396 131" data-background-color="#1c2434" preserveAspectRatio="xMidYMid meet" height="661" width="2000" xmlns="http://www.w3.org/2000/svg" xmlns:xlink="http://www.w3.org/1999/xlink"><g id="tight-bounds" transform="matrix(1,0,0,1,0.2400000000000091,-0.15697654102152114)"><svg viewBox="0 0 395.52 131.31395308204304" height="131.31395308204304" width="395.52"><g><svg viewBox="0 0 673.0509590785882 223.45515286779383" height="131.31395308204304" width="395.52"><g transform="matrix(1,0,0,1,277.53095907858824,54.46232476621954)"><svg viewBox="0 0 395.52 114.53050333535475" height="114.53050333535475" width="395.52"><g id="textblocktransform"><svg viewBox="0 0 395.52 114.53050333535475" height="114.53050333535475" width="395.52" id="textblock"><g><svg viewBox="0 0 395.52 114.53050333535475" height="114.53050333535475" width="395.52"><g transform="matrix(1,0,0,1,0,0)"><svg width="395.52" viewBox="3.45 -40.5 164.88000000000002 47.75" height="114.53050333535475" data-palette-color="#ffffff"><path d="M9 0L3.45 0 3.45-40.5 9-40.5 9 0ZM20.45 0L15.1 0 15.1-28.9 20.45-28.9 20.45-26.05Q21.9-27.4 23.65-28.35 25.4-29.3 27.5-29.3L27.5-29.3Q29.25-29.3 30.17-28.4 31.1-27.5 31.47-26.15 31.85-24.8 31.85-23.4L31.85-23.4 31.85 0 26.5 0 26.5-21.85Q26.5-23.4 26.05-24.25 25.6-25.1 24.2-25.1L24.2-25.1Q23.3-25.1 22.32-24.58 21.35-24.05 20.45-23.3L20.45-23.3 20.45 0ZM47.35 0L40.8 0 35.1-28.9 40.5-28.9 44.05-5.65 47.65-28.9 52.85-28.9 47.35 0ZM64.29 0.4L64.29 0.4Q60.89 0.4 59.04-0.93 57.19-2.25 56.47-4.83 55.74-7.4 55.74-11.15L55.74-11.15 55.74-17.75Q55.74-21.6 56.49-24.15 57.24-26.7 59.12-28 60.99-29.3 64.29-29.3L64.29-29.3Q67.94-29.3 69.67-27.8 71.39-26.3 71.94-23.48 72.49-20.65 72.49-16.7L72.49-16.7 72.49-14.35 61.09-14.35 61.09-8.55Q61.09-6.8 61.42-5.7 61.74-4.6 62.47-4.08 63.19-3.55 64.34-3.55L64.34-3.55Q65.54-3.55 66.17-4.13 66.79-4.7 67.02-5.78 67.24-6.85 67.24-8.3L67.24-8.3 67.24-10.05 72.44-10.05 72.44-8.95Q72.44-4.6 70.59-2.1 68.74 0.4 64.29 0.4ZM61.09-18.8L61.09-17.25 67.24-17.25 67.24-19.85Q67.24-21.65 67.04-22.88 66.84-24.1 66.22-24.73 65.59-25.35 64.24-25.35L64.24-25.35Q62.94-25.35 62.27-24.75 61.59-24.15 61.34-22.73 61.09-21.3 61.09-18.8L61.09-18.8ZM82.69 0L77.34 0 77.34-28.9 82.69-28.9 82.69-26.05Q84.14-27.4 85.89-28.35 87.64-29.3 89.74-29.3L89.74-29.3Q91.49-29.3 92.42-28.4 93.34-27.5 93.72-26.15 94.09-24.8 94.09-23.4L94.09-23.4 94.09 0 88.74 0 88.74-21.85Q88.74-23.4 88.29-24.25 87.84-25.1 86.44-25.1L86.44-25.1Q85.54-25.1 84.57-24.58 83.59-24.05 82.69-23.3L82.69-23.3 82.69 0ZM106.99 0.4L106.99 0.4Q104.74 0.4 103.36-0.45 101.99-1.3 101.36-2.85 100.74-4.4 100.74-6.5L100.74-6.5 100.74-25.35 97.69-25.35 97.69-28.9 100.74-28.9 100.74-37.35 106.09-37.35 106.09-28.9 110.74-28.9 110.74-25.35 106.09-25.35 106.09-6.85Q106.09-5.15 106.64-4.42 107.19-3.7 108.74-3.7L108.74-3.7Q109.14-3.7 109.66-3.75 110.19-3.8 110.69-3.85L110.69-3.85 110.69 0.1Q109.69 0.25 108.84 0.33 107.99 0.4 106.99 0.4ZM122.64 0.4L122.64 0.4Q119.44 0.4 117.59-0.9 115.74-2.2 114.96-4.6 114.19-7 114.19-10.25L114.19-10.25 114.19-18.65Q114.19-21.9 114.96-24.3 115.74-26.7 117.59-28 119.44-29.3 122.64-29.3L122.64-29.3Q125.84-29.3 127.66-28 129.49-26.7 130.26-24.3 131.04-21.9 131.04-18.65L131.04-18.65 131.04-10.25Q131.04-7 130.26-4.6 129.49-2.2 127.66-0.9 125.84 0.4 122.64 0.4ZM122.64-3.55L122.64-3.55Q124.19-3.55 124.81-4.45 125.44-5.35 125.56-6.83 125.69-8.3 125.69-9.9L125.69-9.9 125.69-18.95Q125.69-20.6 125.56-22.05 125.44-23.5 124.81-24.43 124.19-25.35 122.64-25.35L122.64-25.35Q121.09-25.35 120.44-24.43 119.79-23.5 119.66-22.05 119.54-20.6 119.54-18.95L119.54-18.95 119.54-9.9Q119.54-8.3 119.66-6.83 119.79-5.35 120.44-4.45 121.09-3.55 122.64-3.55ZM141.43 0L136.08 0 136.08-28.9 141.43-28.9 141.43-24.8Q143.03-27.45 144.63-28.35 146.23-29.25 147.83-29.25L147.83-29.25Q148.03-29.25 148.21-29.25 148.38-29.25 148.68-29.2L148.68-29.2 148.68-23.3Q148.08-23.55 147.31-23.73 146.53-23.9 145.73-23.9L145.73-23.9Q144.48-23.9 143.46-23.33 142.43-22.75 141.43-21.1L141.43-21.1 141.43 0ZM152.18 7.25L151.53 7.25 151.53 3.15Q153.48 3.15 154.63 2.98 155.78 2.8 156.28 2.33 156.78 1.85 156.78 1L156.78 1Q156.78 0.55 156.43-1 156.08-2.55 155.68-4.3L155.68-4.3 149.88-28.9 155.28-28.9 159.18-7.3 162.93-28.9 168.33-28.9 161.43 1.6Q160.98 3.7 159.78 4.93 158.58 6.15 156.71 6.7 154.83 7.25 152.18 7.25L152.18 7.25Z" opacity="1" transform="matrix(1,0,0,1,0,0)" fill="#ffffff" class="wordmark-text-0" data-fill-palette-color="primary" id="text-0"></path></svg></g></svg></g></svg></g></svg></g><g><svg viewBox="0 0 223.45515286779383 223.45515286779383" height="223.45515286779383" width="223.45515286779383"><g><svg></svg></g><g id="icon-0"><svg viewBox="0 0 223.45515286779383 223.45515286779383" height="223.45515286779383" width="223.45515286779383"><g><path d="M0 111.728c0-61.705 50.022-111.728 111.728-111.728 61.705 0 111.728 50.022 111.727 111.728 0 61.705-50.022 111.728-111.727 111.727-61.705 0-111.728-50.022-111.728-111.727zM111.728 213.127c56.001 0 101.399-45.398 101.399-101.399 0-56.001-45.398-101.399-101.399-101.4-56.001 0-101.399 45.398-101.4 101.4 0 56.001 45.398 101.399 101.4 101.399z" data-fill-palette-color="tertiary" fill="#3c50e0" stroke="transparent"></path></g><g transform="matrix(1,0,0,1,50.62856221143148,50.62856221143148)"><svg viewBox="0 0 122.19802844493087 122.19802844493087" height="122.19802844493087" width="122.19802844493087"><g><svg xmlns="http://www.w3.org/2000/svg" viewBox="2 2 60 60" x="0" y="0" height="122.19802844493087" width="122.19802844493087" class="icon-cg-0" data-fill-palette-color="accent" id="cg-0"><g fill="#3c50e0" data-fill-palette-color="accent"><path d="M61 5H54V3a1 1 0 0 0-1-1H33a1 1 0 0 0-1 1V5H24a1 1 0 0 0-1 1H3A1 1 0 0 0 2 7v6a1 1 0 0 0 1 1H4V24H3a1 1 0 0 0-1 1v6a1 1 0 0 0 1 1H4V42H3a1 1 0 0 0-1 1v6a1 1 0 0 0 1 1H4V61a1 1 0 0 0 1 1H61a1 1 0 0 0 1-1V6A1 1 0 0 0 61 5ZM15 14h8v5H15Zm0-2V8h8v4ZM4 8h9v4H4Zm2 6h7v6a1 1 0 0 0 1 1h9v3H6Zm9 18h8v5H15Zm0-2V26h8v4ZM4 26h9v4H4Zm2 6h7v6a1 1 0 0 0 1 1h9v3H6Zm9 18h8v5H15Zm0-2V44h8v4ZM4 44h9v4H4Zm2 6h7v6a1 1 0 0 0 1 1h9v3H6ZM34 4H52V8H34ZM60 60H25V7h7V9a1 1 0 0 0 1 1H53a1 1 0 0 0 1-1V7h6Z" fill="#3c50e0" data-fill-palette-color="accent"></path><path d="M36 13H31a1 1 0 0 0-1 1v5a1 1 0 0 0 1 1h5a1 1 0 0 0 1-1V14A1 1 0 0 0 36 13Zm-1 5H32V15h3Z" fill="#3c50e0" data-fill-palette-color="accent"></path><rect x="40" y="13" width="15" height="2" fill="#3c50e0" data-fill-palette-color="accent"></rect><rect x="40" y="17" width="11" height="2" fill="#3c50e0" data-fill-palette-color="accent"></rect><path d="M36 25H31a1 1 0 0 0-1 1v5a1 1 0 0 0 1 1h5a1 1 0 0 0 1-1V26A1 1 0 0 0 36 25Zm-1 5H32V27h3Z" fill="#3c50e0" data-fill-palette-color="accent"></path><rect x="40" y="25" width="15" height="2" fill="#3c50e0" data-fill-palette-color="accent"></rect><rect x="40" y="29" width="11" height="2" fill="#3c50e0" data-fill-palette-color="accent"></rect><path d="M36 37H31a1 1 0 0 0-1 1v5a1 1 0 0 0 1 1h5a1 1 0 0 0 1-1V38A1 1 0 0 0 36 37Zm-1 5H32V39h3Z" fill="#3c50e0" data-fill-palette-color="accent"></path><rect x="40" y="37" width="15" height="2" fill="#3c50e0" data-fill-palette-color="accent"></rect><rect x="40" y="41" width="11" height="2" fill="#3c50e0" data-fill-palette-color="accent"></rect><path d="M36 49H31a1 1 0 0 0-1 1v5a1 1 0 0 0 1 1h5a1 1 0 0 0 1-1V50A1 1 0 0 0 36 49Zm-1 5H32V51h3Z" fill="#3c50e0" data-fill-palette-color="accent"></path><rect x="40" y="49" width="15" height="2" fill="#3c50e0" data-fill-palette-color="accent"></rect><rect x="40" y="53" width="11" height="2" fill="#3c50e0" data-fill-palette-color="accent"></rect></g></svg></g></svg></g></svg></g></svg></g></svg></g><defs></defs></svg><rect width="395.52" height="131.31395308204304" fill="none" stroke="none" visibility="hidden"></rect></g></svg></g></svg>